<svg width="24" height="24" xmlns="http://www.w3.org/2000/svg" class="StyledIconBase-ea9ulj-0 jZGNBW">
 <title>Flip icon</title>

 <g>
  <title>Layer 1</title>
  <g id="svg_1">
   <g id="svg_2">
    <path id="svg_3" d="m5,6.09l0,12l-1.29,-1.3a1,1 0 0 0 -1.42,1.42l3,3a1,1 0 0 0 1.42,0l3,-3a1,1 0 0 0 0,-1.42a1,1 0 0 0 -1.42,0l-1.29,1.3l0,-12a1.56,1.56 0 0 1 1.53,-1.59l2.47,0a1,1 0 0 0 0,-2l-2.47,0a3.56,3.56 0 0 0 -3.53,3.59zm9.29,-0.3a1,1 0 0 0 1.42,1.42l1.29,-1.3l0,12a1.56,1.56 0 0 1 -1.53,1.59l-2.47,0a1,1 0 0 0 0,2l2.47,0a3.56,3.56 0 0 0 3.53,-3.59l0,-12l1.29,1.3a1,1 0 0 0 1.42,0a1,1 0 0 0 0,-1.42l-3,-3a1,1 0 0 0 -1.42,0l-3,3z"/>
   </g>
  </g>
 </g>
</svg>