<svg width="24.000000000000004" height="24.000000000000004"
xmlns="http://www.w3.org/2000/svg"
class="StyledIconBase-ea9ulj-0 jZGNBW">
  <title>VolumeFull icon</title>
  <g>
    <title>Layer 1</title>
    <path id="svg_1" fill="white"
    d="m16,21c3.527,-1.547 5.999,-4.909 5.999,-9s-2.472,-7.453 -5.999,-9l0,2c2.387,1.386 3.999,4.047 3.999,7s-1.612,5.614 -3.999,7l0,2z" />
    <path id="svg_2" fill="white"
    d="m16,7l0,10c1.225,-1.1 2,-3.229 2,-5s-0.775,-3.9 -2,-5zm-12,10l2.697,0l5.748,3.832a1.004,1.004 0 0 0 1.027,0.05a1,1 0 0 0 0.528,-0.882l0,-16a1,1 0 0 0 -1.554,-0.832l-5.749,3.832l-2.697,0c-1.103,0 -2,0.897 -2,2l0,6c0,1.103 0.897,2 2,2zm0,-8l3,0c0.033,0 0.061,-0.016 0.093,-0.019a1.027,1.027 0 0 0 0.38,-0.116c0.026,-0.015 0.057,-0.017 0.082,-0.033l4.445,-2.964l0,12.264l-4.445,-2.964c-0.025,-0.017 -0.056,-0.02 -0.082,-0.033a0.986,0.986 0 0 0 -0.382,-0.116c-0.032,-0.003 -0.059,-0.019 -0.091,-0.019l-3,0l0,-6z" />
  </g>
</svg>
